<svg width="36" height="36" viewBox="0 0 36 36" fill="none" xmlns="http://www.w3.org/2000/svg">
<path d="M35.4945 32.9651L28.8205 26.34C31.4111 23.1074 32.6657 19.0043 32.3263 14.8744C31.9868 10.7445 30.0791 6.90177 26.9955 4.13626C23.9119 1.37076 19.8867 -0.107279 15.7475 0.00606873C11.6084 0.119416 7.66996 1.81553 4.74206 4.74566C1.81415 7.67579 0.119326 11.6172 0.00606413 15.7595C-0.107197 19.9018 1.36972 23.93 4.13312 27.016C6.89653 30.102 10.7364 32.0111 14.8631 32.3508C18.9899 32.6905 23.0898 31.435 26.32 28.8424L32.94 35.4675C33.1073 35.6362 33.3062 35.7701 33.5255 35.8615C33.7447 35.9529 33.9798 36 34.2173 36C34.4548 36 34.6899 35.9529 34.9091 35.8615C35.1283 35.7701 35.3273 35.6362 35.4945 35.4675C35.8188 35.1318 36 34.6832 36 34.2163C36 33.7494 35.8188 33.3008 35.4945 32.9651ZM16.228 28.8424C13.7374 28.8424 11.3028 28.1033 9.23195 26.7185C7.16112 25.3338 5.5471 23.3656 4.59401 21.0629C3.64091 18.7602 3.39154 16.2263 3.87742 13.7818C4.36331 11.3372 5.56263 9.09172 7.32372 7.32929C9.08482 5.56685 11.3286 4.36662 13.7713 3.88037C16.214 3.39411 18.7459 3.64368 21.0469 4.5975C23.3479 5.55132 25.3146 7.16656 26.6983 9.23896C28.0819 11.3114 28.8205 13.7478 28.8205 16.2403C28.8205 19.5826 27.4938 22.788 25.1322 25.1513C22.7707 27.5147 19.5677 28.8424 16.228 28.8424Z" fill="#00A057"/>
</svg>
